<?xml version="1.0" encoding="utf-8" standalone="no"?>
<!DOCTYPE svg PUBLIC "-//W3C//DTD SVG 1.1//EN"
  "http://www.w3.org/Graphics/SVG/1.1/DTD/svg11.dtd">
<!-- Created with matplotlib (http://matplotlib.org/) -->
<svg height="288pt" version="1.1" viewBox="0 0 432 288" width="432pt" xmlns="http://www.w3.org/2000/svg" xmlns:xlink="http://www.w3.org/1999/xlink">
 <defs>
  <style type="text/css">
*{stroke-linecap:butt;stroke-linejoin:round;}
  </style>
 </defs>
 <g id="figure_1">
  <g id="patch_1">
   <path d="
M0 288
L432 288
L432 0
L0 0
z
" style="fill:#ffffff;"/>
  </g>
  <g id="axes_1">
   <g id="line2d_1">
    <path clip-path="url(#p124b8dd147)" d="
M54 251.974
L57.3818 251.963
L60.7636 251.947
L64.1455 251.925
L67.5273 251.895
L70.9091 251.854
L74.2909 251.799
L77.6727 251.724
L81.0545 251.624
L84.4364 251.493
L87.8182 251.319
L91.2 251.093
L94.5818 250.801
L97.9636 250.427
L101.345 249.951
L104.727 249.35
L108.109 248.598
L111.491 247.665
L114.873 246.516
L118.255 245.113
L121.636 243.415
L125.018 241.377
L128.4 238.95
L131.782 236.088
L135.164 232.739
L138.545 228.856
L141.927 224.393
L145.309 219.311
L148.691 213.578
L152.073 207.169
L155.455 200.073
L158.836 192.295
L162.218 183.855
L165.6 174.79
L168.982 165.16
L172.364 155.044
L175.745 144.541
L179.127 133.773
L182.509 122.877
L185.891 112.01
L189.273 101.339
L192.655 91.0413
L196.036 81.2983
L199.418 72.2907
L202.8 64.1924
L206.182 57.1658
L209.564 51.3557
L212.945 46.8847
L216.327 43.8489
L219.709 42.3141
L223.091 42.3141
L226.473 43.8489
L229.855 46.8847
L233.236 51.3557
L236.618 57.1658
L240 64.1924
L243.382 72.2907
L246.764 81.2983
L250.145 91.0413
L253.527 101.339
L256.909 112.01
L260.291 122.877
L263.673 133.773
L267.055 144.541
L270.436 155.044
L273.818 165.16
L277.2 174.79
L280.582 183.855
L283.964 192.295
L287.345 200.073
L290.727 207.169
L294.109 213.578
L297.491 219.311
L300.873 224.393
L304.255 228.856
L307.636 232.739
L311.018 236.088
L314.4 238.95
L317.782 241.377
L321.164 243.415
L324.545 245.113
L327.927 246.516
L331.309 247.665
L334.691 248.598
L338.073 249.35
L341.455 249.951
L344.836 250.427
L348.218 250.801
L351.6 251.093
L354.982 251.319
L358.364 251.493
L361.745 251.624
L365.127 251.724
L368.509 251.799
L371.891 251.854
L375.273 251.895
L378.655 251.925
L382.036 251.947
L385.418 251.963
L388.8 251.974" style="fill:none;stroke:#0000ff;stroke-linecap:square;stroke-width:7;"/>
   </g>
   <g id="line2d_2">
    <path clip-path="url(#p124b8dd147)" d="
M54 251.575
L57.3818 251.46
L60.7636 251.317
L64.1455 251.14
L67.5273 250.923
L70.9091 250.657
L74.2909 250.334
L77.6727 249.944
L81.0545 249.474
L84.4364 248.913
L87.8182 248.245
L91.2 247.454
L94.5818 246.525
L97.9636 245.437
L101.345 244.171
L104.727 242.708
L108.109 241.024
L111.491 239.099
L114.873 236.91
L118.255 234.436
L121.636 231.656
L125.018 228.551
L128.4 225.105
L131.782 221.303
L135.164 217.134
L138.545 212.593
L141.927 207.678
L145.309 202.393
L148.691 196.75
L152.073 190.765
L155.455 184.464
L158.836 177.878
L162.218 171.047
L165.6 164.018
L168.982 156.847
L172.364 149.593
L175.745 142.326
L179.127 135.116
L182.509 128.041
L185.891 121.18
L189.273 114.613
L192.655 108.422
L196.036 102.685
L199.418 97.4778
L202.8 92.8699
L206.182 88.9251
L209.564 85.699
L212.945 83.2376
L216.327 81.5765
L219.709 80.7398
L223.091 80.7398
L226.473 81.5765
L229.855 83.2376
L233.236 85.699
L236.618 88.9251
L240 92.8699
L243.382 97.4778
L246.764 102.685
L250.145 108.422
L253.527 114.613
L256.909 121.18
L260.291 128.041
L263.673 135.116
L267.055 142.326
L270.436 149.593
L273.818 156.847
L277.2 164.018
L280.582 171.047
L283.964 177.878
L287.345 184.464
L290.727 190.765
L294.109 196.75
L297.491 202.393
L300.873 207.678
L304.255 212.593
L307.636 217.134
L311.018 221.303
L314.4 225.105
L317.782 228.551
L321.164 231.656
L324.545 234.436
L327.927 236.91
L331.309 239.099
L334.691 241.024
L338.073 242.708
L341.455 244.171
L344.836 245.437
L348.218 246.525
L351.6 247.454
L354.982 248.245
L358.364 248.913
L361.745 249.474
L365.127 249.944
L368.509 250.334
L371.891 250.657
L375.273 250.923
L378.655 251.14
L382.036 251.317
L385.418 251.46
L388.8 251.575" style="fill:none;stroke:#008000;stroke-linecap:square;stroke-width:7;"/>
   </g>
   <g id="line2d_3">
    <path clip-path="url(#p124b8dd147)" d="
M54 250.351
L57.3818 250.026
L60.7636 249.646
L64.1455 249.202
L67.5273 248.687
L70.9091 248.092
L74.2909 247.406
L77.6727 246.62
L81.0545 245.723
L84.4364 244.702
L87.8182 243.547
L91.2 242.245
L94.5818 240.784
L97.9636 239.152
L101.345 237.335
L104.727 235.323
L108.109 233.105
L111.491 230.67
L114.873 228.01
L118.255 225.117
L121.636 221.985
L125.018 218.611
L128.4 214.995
L131.782 211.136
L135.164 207.041
L138.545 202.718
L141.927 198.176
L145.309 193.431
L148.691 188.502
L152.073 183.41
L155.455 178.182
L158.836 172.846
L162.218 167.436
L165.6 161.987
L168.982 156.538
L172.364 151.131
L175.745 145.808
L179.127 140.615
L182.509 135.595
L185.891 130.796
L189.273 126.261
L192.655 122.035
L196.036 118.159
L199.418 114.674
L202.8 111.613
L206.182 109.011
L209.564 106.895
L212.945 105.287
L216.327 104.205
L219.709 103.662
L223.091 103.662
L226.473 104.205
L229.855 105.287
L233.236 106.895
L236.618 109.011
L240 111.613
L243.382 114.674
L246.764 118.159
L250.145 122.035
L253.527 126.261
L256.909 130.796
L260.291 135.595
L263.673 140.615
L267.055 145.808
L270.436 151.131
L273.818 156.538
L277.2 161.987
L280.582 167.436
L283.964 172.846
L287.345 178.182
L290.727 183.41
L294.109 188.502
L297.491 193.431
L300.873 198.176
L304.255 202.718
L307.636 207.041
L311.018 211.136
L314.4 214.995
L317.782 218.611
L321.164 221.985
L324.545 225.117
L327.927 228.01
L331.309 230.67
L334.691 233.105
L338.073 235.323
L341.455 237.335
L344.836 239.152
L348.218 240.784
L351.6 242.245
L354.982 243.547
L358.364 244.702
L361.745 245.723
L365.127 246.62
L368.509 247.406
L371.891 248.092
L375.273 248.687
L378.655 249.202
L382.036 249.646
L385.418 250.026
L388.8 250.351" style="fill:none;stroke:#ff0000;stroke-linecap:square;stroke-width:7;"/>
   </g>
  </g>
 </g>
 <defs>
  <clipPath id="p124b8dd147">
   <rect height="223.2" width="334.8" x="54.0" y="28.8"/>
  </clipPath>
 </defs>
</svg>
